<?xml version="1.0" encoding="UTF-8" standalone="no"?>
<svg
   xmlns:osb="http://www.openswatchbook.org/uri/2009/osb"
   xmlns:dc="http://purl.org/dc/elements/1.1/"
   xmlns:cc="http://creativecommons.org/ns#"
   xmlns:rdf="http://www.w3.org/1999/02/22-rdf-syntax-ns#"
   xmlns:svg="http://www.w3.org/2000/svg"
   xmlns="http://www.w3.org/2000/svg"
   xmlns:xlink="http://www.w3.org/1999/xlink"
   xmlns:sodipodi="http://sodipodi.sourceforge.net/DTD/sodipodi-0.dtd"
   xmlns:inkscape="http://www.inkscape.org/namespaces/inkscape"
   width="58"
   height="58"
   viewBox="-3 -3 64 64"
   fill="none"
   id="svg2"
   version="1.1"
   inkscape:version="0.91 r13725"
   sodipodi:docname="icon.svg">
  <defs
     id="defs16">
    <linearGradient
       x1="0"
       y1="0"
       x2="0.957213"
       y2="2.61726e-16"
       id="linearGradient8091"
       gradientUnits="userSpaceOnUse"
       gradientTransform="matrix(0,-37.1015,37.1015,0,69.9034,70.5065)"
       spreadMethod="pad">
      <stop
         id="stop8093"
         style="stop-color:#9da9a9;stop-opacity:1"
         offset="0" />
      <stop
         id="stop8095"
         style="stop-color:#06a5e5;stop-opacity:1"
         offset="0.219864" />
      <stop
         id="stop8097"
         style="stop-color:#06a5e5;stop-opacity:1"
         offset="0.219864" />
      <stop
         id="stop8099"
         style="stop-color:#1870c5;stop-opacity:1"
         offset="0.794312" />
      <stop
         id="stop8101"
         style="stop-color:#ffffff;stop-opacity:1"
         offset="1" />
    </linearGradient>
    <linearGradient
       id="linearGradient4513"
       osb:paint="gradient">
      <stop
         style="stop-color:#50b5e9;stop-opacity:1;"
         offset="0"
         id="stop4515" />
      <stop
         style="stop-color:#50b5e9;stop-opacity:0;"
         offset="1"
         id="stop4517" />
    </linearGradient>
    <inkscape:path-effect
       effect="spiro"
       id="path-effect4280"
       is_visible="true" />
    <linearGradient
       spreadMethod="pad"
       gradientTransform="matrix(0,-37.1015,37.1015,0,69.9034,70.5065)"
       gradientUnits="userSpaceOnUse"
       id="linearGradient3048"
       y2="2.61726e-16"
       x2="0.957213"
       y1="0"
       x1="0">
      <stop
         offset="0"
         style="stop-color:#00b8f1;stop-opacity:1"
         id="stop3050" />
      <stop
         offset="0.219864"
         style="stop-color:#06a5e5;stop-opacity:1"
         id="stop3052" />
      <stop
         offset="0.219864"
         style="stop-color:#06a5e5;stop-opacity:1"
         id="stop3054" />
      <stop
         offset="0.794312"
         style="stop-color:#1870c5;stop-opacity:1"
         id="stop3056" />
      <stop
         offset="1"
         style="stop-color:#1d61bc;stop-opacity:1"
         id="stop3058" />
    </linearGradient>
    <linearGradient
       spreadMethod="pad"
       gradientTransform="matrix(0,-37.1015,37.1015,0,69.9034,70.5065)"
       gradientUnits="userSpaceOnUse"
       xlink:href="#linearGradient3048"
       id="linearGradient5318"
       y2="2.61726e-16"
       x2="0.957213"
       y1="0"
       x1="0" />
    <linearGradient
       spreadMethod="pad"
       gradientTransform="matrix(0,46.3769,46.3769,0,44.859,0.024)"
       gradientUnits="userSpaceOnUse"
       xlink:href="#linearGradient3048"
       id="linearGradient5334"
       y2="2.61726e-16"
       x2="0.957213"
       y1="0"
       x1="0" />
    <linearGradient
       inkscape:collect="always"
       xlink:href="#linearGradient3048"
       id="linearGradient6070"
       x1="28.723026"
       y1="20.040434"
       x2="28.901844"
       y2="38.527199"
       gradientUnits="userSpaceOnUse" />
    <linearGradient
       inkscape:collect="always"
       xlink:href="#linearGradient3048"
       id="linearGradient7302"
       gradientUnits="userSpaceOnUse"
       x1="28.723026"
       y1="20.040434"
       x2="28.901844"
       y2="38.527199"
       gradientTransform="matrix(0.89684939,0,0,0.91574913,2.71875,2.71875)" />
    <radialGradient
       inkscape:collect="always"
       xlink:href="#linearGradient3048"
       id="radialGradient8123"
       cx="28.570652"
       cy="24.358532"
       fx="28.570652"
       fy="24.358532"
       r="23.438543"
       gradientTransform="matrix(0.83355344,2.7155805e-5,0,0.42370528,5.1848348,13.161144)"
       gradientUnits="userSpaceOnUse" />
  </defs>
  <sodipodi:namedview
     pagecolor="#ffffff"
     bordercolor="#666666"
     borderopacity="1"
     objecttolerance="10"
     gridtolerance="10"
     guidetolerance="10"
     inkscape:pageopacity="0"
     inkscape:pageshadow="2"
     inkscape:window-width="1650"
     inkscape:window-height="843"
     id="namedview14"
     showgrid="true"
     showguides="false"
     inkscape:zoom="15.077156"
     inkscape:cx="29.164637"
     inkscape:cy="27.742661"
     inkscape:window-x="57"
     inkscape:window-y="99"
     inkscape:window-maximized="0"
     inkscape:current-layer="svg2">
    <inkscape:grid
       type="xygrid"
       id="grid5006" />
  </sodipodi:namedview>
  <path
     d="m 28.976409,58.205219 c 16.0163,0 29,-12.9837 29,-29 0,-16.0163 -12.9837,-29.00000033 -29,-29.00000033 -16.0163,0 -28.9999993,12.98370033 -28.9999993,29.00000033 0,16.0163 12.9836993,29 28.9999993,29 z"
     id="path4"
     style="fill:#000000;fill-opacity:1;stroke:#ffffff;stroke-width:0.99972415;stroke-miterlimit:4;stroke-dasharray:none;stroke-opacity:1"
     inkscape:connector-curvature="0" />
  <path
     style="fill:url(#radialGradient8123);fill-opacity:1;fill-rule:nonzero;stroke:#ffffff;stroke-width:0;stroke-miterlimit:4;stroke-dasharray:none;stroke-opacity:1"
     d="m 16.79015,16.070844 c -1.657992,0 -3.040199,0.41777 -4.147613,1.253455 -1.107414,0.829258 -1.661471,1.914762 -1.661471,3.258287 0,0.996395 0.235886,1.825615 0.705129,2.487734 0.469243,0.662122 1.244365,1.190816 2.326752,1.582946 0.469243,0.167137 0.972677,0.30792 1.510744,0.42363 0.54432,0.11571 1.054299,0.237532 1.529799,0.3661 0.381651,0.102854 0.710506,0.266628 0.985795,0.49162 0.275289,0.224992 0.412337,0.51865 0.412337,0.878639 0,0.321417 -0.08402,0.581733 -0.252947,0.781012 -0.168928,0.19285 -0.37623,0.342241 -0.620236,0.451523 -0.200211,0.09642 -0.465353,0.167686 -0.796952,0.212686 -0.325342,0.045 -0.588079,0.06799 -0.788289,0.06799 -0.794584,0 -1.613784,-0.163774 -2.458422,-0.491619 -0.844638,-0.327847 -1.617353,-0.79792 -2.31809,-1.408612 l -0.31878,0 0,3.413443 c 0.69448,0.314989 1.445156,0.579337 2.252255,0.791473 0.813355,0.212134 1.754105,0.317286 2.82398,0.317286 1.858204,0 3.330972,-0.432699 4.419616,-1.300526 1.094901,-0.867827 1.642412,-2.015985 1.642412,-3.44308 0,-0.996394 -0.236557,-1.796302 -0.712059,-2.400567 -0.469242,-0.610694 -1.188929,-1.095695 -2.158698,-1.455683 -0.494269,-0.179994 -0.960169,-0.322519 -1.39813,-0.425373 -0.431704,-0.102854 -0.882109,-0.208004 -1.351353,-0.317286 -0.725762,-0.173565 -1.217841,-0.36665 -1.47436,-0.578787 -0.250263,-0.218564 -0.374221,-0.510479 -0.374221,-0.876895 0,-0.250706 0.07748,-0.477134 0.233887,-0.676412 0.162671,-0.205709 0.352747,-0.35913 0.571728,-0.461984 0.269032,-0.128565 0.526957,-0.214756 0.770962,-0.259756 0.244007,-0.045 0.5181,-0.06799 0.824673,-0.06799 0.788329,0 1.554499,0.157453 2.299033,0.472443 0.750788,0.314989 1.386457,0.701159 1.905752,1.157572 l 0.310119,0 0,-3.279207 C 20.832818,16.739202 20.093498,16.504166 19.267631,16.3306 18.448019,16.157035 17.622274,16.070844 16.79015,16.070844 Z m 10.24949,0.259756 -4.721072,14.358081 3.518715,0 0.873182,-2.930541 4.391896,0 0.873181,2.930541 3.614002,0 -4.721071,-14.358081 -3.828833,0 z m 9.956697,0 0,14.358081 3.510052,0 0,-4.696536 1.839918,0 c 0.500526,0 0.950932,-0.04195 1.351353,-0.12552 0.406677,-0.08357 0.782015,-0.199071 1.126128,-0.346923 0.34411,-0.147851 0.655738,-0.326554 0.937283,-0.53869 0.287803,-0.212134 0.552271,-0.444883 0.790022,-0.695589 0.387906,-0.404986 0.684039,-0.908946 0.890507,-1.513212 0.206468,-0.604264 0.310118,-1.2404 0.310118,-1.908949 0,-0.829258 -0.143591,-1.542974 -0.431393,-2.14081 C 47.032523,18.118186 46.624462,17.635473 46.09891,17.275486 45.623409,16.947641 45.093124,16.710316 44.505006,16.562464 43.923146,16.408183 43.227903,16.3306 42.420805,16.3306 l -5.424468,0 z m 3.510052,2.681244 0.497228,0 c 0.519295,0 0.929762,0.01264 1.230078,0.03835 0.306572,0.01928 0.624743,0.103188 0.956342,0.25104 0.262775,0.109282 0.487978,0.310975 0.675676,0.60668 0.187697,0.289275 0.282398,0.637525 0.282398,1.042512 0,0.437128 -0.04409,0.783634 -0.131671,1.040769 -0.08133,0.257134 -0.24042,0.50481 -0.47817,0.742659 -0.112618,0.11571 -0.275843,0.220861 -0.488566,0.317287 -0.206468,0.09 -0.403087,0.15091 -0.590784,0.183049 -0.218981,0.03858 -0.475172,0.06155 -0.769232,0.06799 -0.294059,0.0065 -0.607419,0.01046 -0.939016,0.01046 l -0.244283,0 0,-4.300801 z m -11.59911,1.406869 1.425849,4.734889 -2.853432,0 1.427583,-4.734889 z"
     id="path6175"
     inkscape:connector-curvature="0" />
  <path
     style="fill:#ffffff;fill-opacity:1;stroke:#ffffff;stroke-width:0.24497186;stroke-miterlimit:4;stroke-dasharray:none;stroke-opacity:1"
     d="m 29.515973,37.252901 c -0.702107,0 -1.318744,0.11542 -1.8487,0.346265 -0.526579,0.230842 -0.99618,0.586983 -1.407993,1.071114 -0.388183,0.455274 -0.686713,0.959796 -0.895994,1.511256 -0.205908,0.551461 -0.309467,1.111384 -0.309467,1.68208 0,0.891314 0.273146,1.588205 0.816603,2.088367 0.546832,0.500162 1.304432,0.749472 2.273203,0.749472 0.411812,0 0.821329,-0.04129 1.229766,-0.124656 0.411812,-0.08335 0.818357,-0.207375 1.220044,-0.370889 l 0.238176,-1.149601 c -0.408436,0.285348 -0.828486,0.500546 -1.26055,0.644823 -0.432065,0.141072 -0.882088,0.212377 -1.351284,0.212377 -0.678479,0 -1.197632,-0.172492 -1.555434,-0.515551 -0.354431,-0.343061 -0.531441,-0.841811 -0.531441,-1.495868 0,-0.391151 0.05253,-0.778712 0.157164,-1.163451 0.108015,-0.387946 0.262479,-0.75409 0.465011,-1.100355 0.317297,-0.538636 0.693867,-0.94056 1.129309,-1.203465 0.438816,-0.262905 0.947438,-0.393973 1.52465,-0.393973 0.421939,0 0.813498,0.07555 1.174677,0.226227 0.364554,0.15069 0.708047,0.381533 1.032096,0.69253 l 0.209012,-1.024944 C 31.490644,37.70702 31.12906,37.537479 30.740877,37.425263 30.356069,37.309841 29.948038,37.252901 29.515973,37.252901 Z m -6.22336,0.129271 -1.367486,6.680615 c -0.124894,0.609172 -0.304876,1.036617 -0.541162,1.28349 -0.236285,0.246875 -0.582882,0.37089 -1.038577,0.37089 l -0.319187,0 -0.166886,0.817186 0.40506,0 c 0.762867,0 1.355471,-0.19519 1.77741,-0.586343 0.425315,-0.387945 0.726815,-1.016353 0.905716,-1.885223 l 1.372347,-6.680615 -1.027235,0 z m 12.287935,1.663614 c -0.51983,0 -0.98484,0.102602 -1.396652,0.307791 -0.411811,0.205193 -0.785412,0.522989 -1.119589,0.952615 -0.212657,0.275729 -0.386697,0.617763 -0.521719,1.024946 -0.131644,0.403976 -0.197669,0.801539 -0.197669,1.192692 0,0.673295 0.193619,1.204747 0.578427,1.595898 0.388184,0.387946 0.914763,0.581727 1.579738,0.581727 0.52658,0 0.99456,-0.102603 1.406372,-0.307792 0.411813,-0.205193 0.783929,-0.522989 1.11473,-0.952615 0.212656,-0.278935 0.385212,-0.629434 0.516857,-1.052647 0.131644,-0.423212 0.19767,-0.847837 0.19767,-1.274256 0,-0.615583 -0.199561,-1.114334 -0.59787,-1.495868 -0.394936,-0.381533 -0.915572,-0.572491 -1.560295,-0.572491 z m -0.100456,0.75101 c 0.425314,0 0.747877,0.118243 0.967286,0.3555 0.219408,0.237255 0.32891,0.587753 0.32891,1.052647 0,0.795129 -0.205502,1.453546 -0.617313,1.972944 -0.408437,0.51619 -0.926105,0.774096 -1.550575,0.774096 -0.435441,0 -0.760975,-0.121194 -0.977008,-0.361656 -0.212657,-0.243668 -0.319188,-0.6084 -0.319188,-1.095738 10e-7,-0.323822 0.04199,-0.638795 0.12638,-0.94338 0.08777,-0.304585 0.212386,-0.575314 0.371036,-0.81257 0.216033,-0.31741 0.460554,-0.552487 0.733971,-0.706382 0.273416,-0.157102 0.585448,-0.235461 0.936501,-0.235461 z"
     id="path7287"
     inkscape:connector-curvature="0" />
  <title
     id="title5008">SAP JCo connector for Mule 4</title>
  <metadata
     id="metadata18">
    <rdf:RDF>
      <cc:Work
         rdf:about="">
        <dc:format>image/svg+xml</dc:format>
        <dc:type
           rdf:resource="http://purl.org/dc/dcmitype/StillImage" />
        <dc:title>SAP JCo connector for Mule 4</dc:title>
        <cc:license
           rdf:resource="http://www.hawkore.com" />
        <dc:creator>
          <cc:Agent>
            <dc:title>Manuel Núñez</dc:title>
          </cc:Agent>
        </dc:creator>
        <dc:rights>
          <cc:Agent>
            <dc:title>HAWKORE, S.L.</dc:title>
          </cc:Agent>
        </dc:rights>
      </cc:Work>
    </rdf:RDF>
  </metadata>
</svg>
